<svg xmlns="http://www.w3.org/2000/svg" xmlns:xlink="http://www.w3.org/1999/xlink" viewBox="0 0 667.5 196.54"><defs><style>.cls-1{font-size:64px;font-family:Poppins-Medium, Poppins;font-weight:500;letter-spacing:0.02em;}.cls-1,.cls-2{fill:#fff;}.cls-3{fill:#f9b318;}.cls-4{fill:url(#linear-gradient);}.cls-5{fill:#eda422;}.cls-6{fill:#fbb416;}</style><linearGradient id="linear-gradient" x1="35.29" y1="26.56" x2="163.11" y2="154.38" gradientTransform="translate(-5.96 3.75) rotate(-0.3)" gradientUnits="userSpaceOnUse"><stop offset="0" stop-color="#1d2f5e"/><stop offset="0.23" stop-color="#1d3163"/><stop offset="0.5" stop-color="#1b3771"/><stop offset="0.79" stop-color="#194088"/><stop offset="1" stop-color="#17499e"/></linearGradient></defs><title>Asset 10</title><g id="Layer_2" data-name="Layer 2"><g id="Layer_1-2" data-name="Layer 1"><text class="cls-1" transform="translate(280.18 159.29)">Pool Master</text><path class="cls-2" d="M259.58,75.49H255L230.31,37.76V75.49h-4.55V30.4h4.55L255,68.19V30.4h4.55Z"/><path class="cls-2" d="M292.5,69.85a9.46,9.46,0,0,0,3.84-6.4h4.74a14.26,14.26,0,0,1-5.31,9,17.22,17.22,0,0,1-11,3.46,18,18,0,0,1-8.87-2.15,15,15,0,0,1-6.05-6.21A20,20,0,0,1,267.65,58a20,20,0,0,1,2.18-9.57,15.06,15.06,0,0,1,6.05-6.22,18,18,0,0,1,8.87-2.14,17.55,17.55,0,0,1,8.87,2.14,14.5,14.5,0,0,1,5.7,5.74,16.08,16.08,0,0,1,2,7.81A19.27,19.27,0,0,1,301,59H272.07a14.64,14.64,0,0,0,1.83,7.39,11,11,0,0,0,4.58,4.39,13.36,13.36,0,0,0,6.08,1.41A13,13,0,0,0,292.5,69.85Zm-14-24.72A11.1,11.1,0,0,0,274,49.45a14.8,14.8,0,0,0-1.89,7.27h24.72a12.93,12.93,0,0,0-1.41-7.24,10.48,10.48,0,0,0-4.48-4.35,14.25,14.25,0,0,0-12.36,0Z"/><path class="cls-2" d="M329.07,75.49l-9.6-14.29-8.91,14.29h-4.93l11.4-18-11.4-17h5.13l9.35,13.89,8.77-13.89h4.93L322.48,58,334.2,75.49Z"/><path class="cls-2" d="M355.91,71.52v4h-4.16q-5.07,0-7.56-2.41t-2.5-8.1V44.42h-5.32v-3.9h5.32V31.68h4.55v8.84h9.6v3.9h-9.6V65.05q0,3.7,1.34,5.09t4.74,1.38Z"/><path class="cls-2" d="M364.24,40.52,376.4,69.66l11.21-29.14h5L372.05,92h-5.12l7-16.91L359.24,40.52Z"/><path class="cls-2" d="M405.16,57.94V75.49h-7.3V30.27h15.37Q421,30.27,425,34t3.93,10.19q0,6.4-4,10.08t-11.66,3.69Zm16.33-13.77a7.64,7.64,0,0,0-2.14-5.86q-2.14-2-6.89-2h-7.3V52h7.3Q421.49,52,421.49,44.17Z"/><path class="cls-2" d="M442.63,28.09v47.4h-7.3V28.09Z"/><path class="cls-2" d="M473.82,42.12a12.79,12.79,0,0,1,4.81,6.27V40.2h7.3V75.49h-7.3v-8.2a12.82,12.82,0,0,1-4.81,6.28,13.94,13.94,0,0,1-8.2,2.37,15.67,15.67,0,0,1-8.23-2.18,14.94,14.94,0,0,1-5.67-6.28,21.47,21.47,0,0,1-2-9.67,21.33,21.33,0,0,1,2-9.61,15,15,0,0,1,5.67-6.28,15.66,15.66,0,0,1,8.23-2.17A13.94,13.94,0,0,1,473.82,42.12Zm-13.74,7.14q-2.91,3.1-2.91,8.55t2.91,8.55a10.19,10.19,0,0,0,7.79,3.11,10.51,10.51,0,0,0,5.5-1.45A10.19,10.19,0,0,0,477.22,64a14.05,14.05,0,0,0,0-12.27,10.17,10.17,0,0,0-3.85-4.1,10.6,10.6,0,0,0-5.5-1.44A10.19,10.19,0,0,0,460.08,49.26Z"/><path class="cls-2" d="M512.44,69.15v6.34H508q-5.64,0-8.55-2.73t-2.92-9.06V46.41h-5.06V40.2h5.06V31.42h7.37V40.2h8.52v6.21h-8.52V63.83c0,2,.37,3.39,1.12,4.16s2.06,1.16,3.94,1.16Z"/><path class="cls-2" d="M529.74,34.27c-1.16,1-1.73,2.83-1.73,5.35v.58h7.75v6.27H528v29h-7.37v-29h-4.8V40.2h4.8V39q0-6.47,3.78-9.7t11.34-2.85v6.4C532.89,32.77,530.89,33.23,529.74,34.27Z"/><path class="cls-2" d="M567,41.92a15.75,15.75,0,0,1,6.41,6.28,19.36,19.36,0,0,1,2.3,9.61,19.48,19.48,0,0,1-2.3,9.67A15.69,15.69,0,0,1,567,73.76a19.37,19.37,0,0,1-9.22,2.18,19.16,19.16,0,0,1-9.19-2.18,15.88,15.88,0,0,1-6.41-6.31,19.25,19.25,0,0,1-2.34-9.64,19.06,19.06,0,0,1,2.34-9.61,16,16,0,0,1,6.41-6.28,19.16,19.16,0,0,1,9.19-2.17A19.36,19.36,0,0,1,567,41.92ZM552.6,47.37a9.42,9.42,0,0,0-3.81,3.94,13.49,13.49,0,0,0-1.44,6.5,13.45,13.45,0,0,0,1.44,6.53,9.46,9.46,0,0,0,3.81,3.91,11.16,11.16,0,0,0,10.38,0,9.46,9.46,0,0,0,3.81-3.91,13.45,13.45,0,0,0,1.44-6.53,13.49,13.49,0,0,0-1.44-6.5A9.42,9.42,0,0,0,563,47.37a11.16,11.16,0,0,0-10.38,0Z"/><path class="cls-2" d="M595.19,41.64a14.49,14.49,0,0,1,7.69-2v7.94H600.7A12,12,0,0,0,593,49.9q-2.91,2.34-2.91,7.72V75.49h-7.3V40.2h7.3v6.91A13.55,13.55,0,0,1,595.19,41.64Z"/><path class="cls-2" d="M662.48,43.59q3.74,4,3.74,11.34V75.49h-7.3V55.7q0-4.62-2.3-7.15A8.2,8.2,0,0,0,650.27,46a8.85,8.85,0,0,0-6.82,2.73c-1.68,1.81-2.53,4.47-2.53,8V75.49h-7.3V55.7q0-4.62-2.3-7.15A8.17,8.17,0,0,0,625,46a8.86,8.86,0,0,0-6.83,2.73c-1.68,1.81-2.53,4.47-2.53,8V75.49h-7.3V40.2h7.3v7.36a11.27,11.27,0,0,1,4.49-5.89,13.11,13.11,0,0,1,7.36-2.05,13.41,13.41,0,0,1,7.66,2.18,12.32,12.32,0,0,1,4.7,6.27,12.81,12.81,0,0,1,4.94-6.21,13.64,13.64,0,0,1,7.68-2.24A13.13,13.13,0,0,1,662.48,43.59Z"/><rect class="cls-2" x="225.75" y="101" width="440.47" height="3.01"/><path class="cls-3" d="M94.19,187.41a93.71,93.71,0,1,1,93.22-94.19,93.81,93.81,0,0,1-93.22,94.19"/><path class="cls-4" d="M93.24,3.28a90.43,90.43,0,1,0,90.89,90,90.53,90.53,0,0,0-90.89-90"/><polygon class="cls-5" points="148.69 61.46 152.62 122.43 133.76 100.61 148.69 61.46"/><polygon class="cls-6" points="133.76 100.61 50.77 125.89 148.69 61.46 133.76 100.61"/><polygon class="cls-5" points="38.73 125.95 34.8 64.99 53.66 86.8 38.73 125.95"/><polygon class="cls-6" points="53.66 86.8 136.64 61.52 38.73 125.95 53.66 86.8"/><path class="cls-3" d="M69.87,16l-2.14-5.89c-2.69.83-5.31,1.79-7.88,2.87L62,18.83A79.53,79.53,0,0,1,69.87,16Z"/><path class="cls-3" d="M93.71,12.41c1.4,0,2.8,0,4.19.11V6.25c-1.54-.07-3.09-.11-4.65-.1-1.25,0-2.49,0-3.74.11v6.26C90.9,12.45,92.3,12.41,93.71,12.41Z"/><path class="cls-3" d="M44.73,28.82l-4-4.8c-2.22,1.69-4.37,3.49-6.42,5.39l4,4.81C40.37,32.32,42.5,30.51,44.73,28.82Z"/><path class="cls-3" d="M25.5,49.49l-5.43-3.14q-2.27,3.52-4.2,7.26l5.44,3.14A79,79,0,0,1,25.5,49.49Z"/><path class="cls-3" d="M166.11,56.75l5.43-3.14q-1.93-3.73-4.2-7.26l-5.43,3.14A81.51,81.51,0,0,1,166.11,56.75Z"/><path class="cls-3" d="M125.42,18.83l2.15-5.89c-2.57-1.08-5.2-2-7.88-2.87L117.54,16A78.62,78.62,0,0,1,125.42,18.83Z"/><path class="cls-3" d="M14.49,75.48,8.31,74.39q-.92,4.06-1.45,8.26L13,83.74A80.52,80.52,0,0,1,14.49,75.48Z"/><path class="cls-3" d="M174.37,83.74l6.18-1.09q-.53-4.2-1.44-8.26l-6.18,1.09A80.5,80.5,0,0,1,174.37,83.74Z"/><path class="cls-3" d="M149.09,34.22l4-4.8Q150,26.57,146.7,24l-4,4.79A82.79,82.79,0,0,1,149.09,34.22Z"/><path class="cls-3" d="M38.32,153.19l-4,4.8q3.08,2.85,6.42,5.4l4-4.8A82.44,82.44,0,0,1,38.32,153.19Z"/><path class="cls-3" d="M142.68,158.59l4,4.81q3.34-2.55,6.42-5.39l-4-4.82A80.61,80.61,0,0,1,142.68,158.59Z"/><path class="cls-3" d="M161.91,137.92l5.43,3.14c1.51-2.34,2.92-4.77,4.2-7.26l-5.43-3.13A81.34,81.34,0,0,1,161.91,137.92Z"/><path class="cls-3" d="M13,103.67l-6.18,1.09Q7.4,109,8.31,113l6.18-1.09A80,80,0,0,1,13,103.67Z"/><path class="cls-3" d="M117.54,171.44l2.14,5.9q4-1.26,7.88-2.87l-2.14-5.89A78.62,78.62,0,0,1,117.54,171.44Z"/><path class="cls-3" d="M174.37,103.67a80,80,0,0,1-1.44,8.26L179.1,113c.61-2.71,1.1-5.46,1.45-8.26Z"/><path class="cls-3" d="M21.31,130.67l-5.44,3.13q1.94,3.73,4.2,7.26l5.43-3.14A78.88,78.88,0,0,1,21.31,130.67Z"/><path class="cls-3" d="M62,168.58l-2.14,5.89q3.84,1.62,7.88,2.87l2.14-5.9A79.53,79.53,0,0,1,62,168.58Z"/><path class="cls-3" d="M93.71,175c-1.41,0-2.81,0-4.2-.1v6.27c1.54.07,3.09.1,4.65.1,1.25,0,2.5-.06,3.74-.12V174.9C96.51,175,95.11,175,93.71,175Z"/></g></g></svg>